<?xml version="1.0" encoding="utf-8"?>
<!-- Generator: Adobe Illustrator 25.4.1, SVG Export Plug-In . SVG Version: 6.00 Build 0)  -->
<svg version="1.1" id="Capa_1" xmlns="http://www.w3.org/2000/svg" xmlns:xlink="http://www.w3.org/1999/xlink" x="0px" y="0px"
	 viewBox="0 0 595.28 841.89" style="enable-background:new 0 0 595.28 841.89;" xml:space="preserve">
<style type="text/css">
	.st0{fill:#ffffff;}
	.st1{fill:#ffffff;}
	.st2{fill:#ffffff;}
	.st3{fill:#ffffff;}
	.st4{fill:#ffffff;}
	.st5{fill:#ffffff;}
	.st6{fill:#ffffff;}
	.st7{fill:#ffffff;}
	.st8{fill:#ffffff;}
	.st9{fill:#ffffff;}
	.st10{fill:#ffffff;}
	.st11{fill:#ffffff;}
	.st12{fill:#ffffff;}
</style>
<g>
	<g>
		<linearGradient id="SVGID_1_" gradientUnits="userSpaceOnUse" x1="348.7048" y1="165.9453" x2="143.3822" y2="521.5746">
			<stop  offset="3.192444e-03" style="stop-color:#ffffff"/>
			<stop  offset="0.4098" style="stop-color:#ffffff"/>
			<stop  offset="0.7949" style="stop-color:#ffffff"/>
			<stop  offset="1" style="stop-color:#ffffff"/>
		</linearGradient>
		<path class="st0" d="M472.62,260.44c2.83,0,5.66,0.09,8.33-1.19c3.92-1.88,5.8-4.97,5.36-9.25c-0.46-4.49-3.1-7.28-7.44-8.31
			c-1.43-0.34-2.98-0.26-4.48-0.26c-43.99,0-87.99,0-131.98,0.04c-2.32,0-4.68,0.13-6.96,0.52c-25,4.21-42.13,18.01-50.76,41.99
			c-1.09,3.03-1.95,4.66-4.7,1.2c-8.04-10.09-18.35-17.38-29.68-23.26c-34.2-17.75-71.12-21.26-108.81-20.41
			c-5.84,0.13-9.79,4.48-10.05,10.4c-0.18,4.16-0.34,8.35,0,12.49c0.38,4.55-1.68,6.27-5.88,6.69c-7.31,0.74-14.44,2.45-21.59,4.09
			c-8.95,2.06-11.59,5.27-11.6,14.62c-0.02,64.16-0.03,128.32-0.02,192.47c0,12.14,5.3,16.09,16.74,12.49
			c43.77-13.78,87.43-14.67,130.93,1.18c14.64,5.33,28.07,13,41.18,21.35c10,6.36,17.66,2.05,18.1-9.83c0.05-1.5,0.03-3,0.03-4.5
			c0-32.33,0-64.66,0-96.99c0.02,0,0.04,0,0.07,0c0-33.5-0.35-67,0.11-100.48c0.37-27.22,20.64-45.7,45.63-45.26
			C387.62,260.98,430.13,260.44,472.62,260.44z M223.15,471.27c-35.08-8.46-70.01-7.41-104.85,1.34c-6.76,1.7-6.76,1.72-6.76-5.45
			c-0.01-55.5-0.02-110.99-0.03-166.49c0-7.43,0.14-7.68,7.48-9.09c14.65-2.8,12.32-3.39,12.35,9.89c0.11,43.5,0.04,87,0.04,130.49
			c0,13.86,2.92,16.79,16.52,15.44c27.13-2.69,53.11,1.56,78.14,12.18c12.05,5.11,27.29,15.54,33.97,24.01
			C247.06,478.34,235.31,474.2,223.15,471.27z M278.41,475.1c-4.81-4.88-9.34-10.16-14.74-14.51c-22.9-18.43-49.5-27.51-78.28-31.26
			c-9.79-1.28-19.6-1.19-29.42-0.99c-4.1,0.08-5.55-1.3-5.54-5.45c0.1-52.29,0.09-104.58,0.03-156.88c0-3.61,0.83-5.55,4.97-5.54
			c26.89,0.02,53.18,3.34,78.01,14.32c13.71,6.06,26.01,14.15,35.14,26.41c6.45,8.66,10.59,18.38,10.66,29.09
			c0.3,47.29,0.18,94.59,0.19,141.89C279.44,473.11,279.73,474.2,278.41,475.1z"/>
		
			<linearGradient id="SVGID_00000181069046330133897820000000509887222262395047_" gradientUnits="userSpaceOnUse" x1="447.293" y1="445.4499" x2="415.9934" y2="499.6624">
			<stop  offset="3.192444e-03" style="stop-color:#ffffff"/>
			<stop  offset="0.4098" style="stop-color:#ffffff"/>
			<stop  offset="0.7949" style="stop-color:#ffffff"/>
			<stop  offset="1" style="stop-color:#ffffff"/>
		</linearGradient>
		<path style="fill:#ffffff;" d="M478.1,464.57
			c-0.66-0.07-1.33-0.08-1.99-0.08c-29.62,0-59.25-0.02-88.87,0.03c-6.57,0.01-10.91,3.59-10.76,8.55c0.14,4.56,4.1,7.39,10.58,7.41
			c14.81,0.03,29.62,0.01,44.44,0.01c8.99,0,17.97,0,26.96,0c6.49,0,12.99,0.12,19.47-0.07c5.42-0.16,8.59-3.23,8.55-7.77
			C486.43,467.97,483.47,465.1,478.1,464.57z"/>
		
			<linearGradient id="SVGID_00000132770053488279564650000014586392340952880787_" gradientUnits="userSpaceOnUse" x1="447.1129" y1="389.1105" x2="415.8867" y2="443.1958">
			<stop  offset="3.192444e-03" style="stop-color:#ffffff"/>
			<stop  offset="0.4098" style="stop-color:#ffffff"/>
			<stop  offset="0.7949" style="stop-color:#ffffff"/>
			<stop  offset="1" style="stop-color:#ffffff"/>
		</linearGradient>
		<path style="fill:#ffffff;" d="M401.37,408.38
			c-5.5,0-11-0.11-16.49,0.07c-4.82,0.16-7.98,2.99-8.33,7.02c-0.36,4.08,2.71,7.73,7.41,8.58c1.79,0.32,3.64,0.35,5.47,0.35
			c27.98,0.02,55.96,0.01,83.95,0.01c2.68,0,5.35-0.03,7.89-0.99c3.53-1.34,5.21-4.01,5.12-7.75c-0.09-3.69-2.35-5.82-5.63-6.78
			c-1.71-0.5-3.62-0.47-5.44-0.47c-14.49-0.03-28.98-0.02-43.47-0.02c0-0.01,0-0.01,0-0.02
			C421.69,408.38,411.53,408.38,401.37,408.38z"/>
		
			<linearGradient id="SVGID_00000113327743890819322300000003708143193529283744_" gradientUnits="userSpaceOnUse" x1="447.1631" y1="332.9961" x2="415.9457" y2="387.0663">
			<stop  offset="3.192444e-03" style="stop-color:#ffffff"/>
			<stop  offset="0.4098" style="stop-color:#ffffff"/>
			<stop  offset="0.7949" style="stop-color:#ffffff"/>
			<stop  offset="1" style="stop-color:#ffffff"/>
		</linearGradient>
		<path style="fill:#ffffff;" d="M386.21,367.63
			c14.99,0.03,29.98,0.01,44.97,0.01c0-0.01,0-0.02,0-0.03c15.49,0,30.98,0.04,46.47-0.02c5.64-0.02,8.66-2.68,8.78-7.35
			c0.11-4.74-3.24-7.86-8.89-7.87c-30.48-0.05-60.97-0.05-91.45,0c-6,0.01-9.57,3.04-9.66,7.81
			C376.35,364.8,379.98,367.62,386.21,367.63z"/>
		
			<linearGradient id="SVGID_00000000935142449789650190000016535369041070759575_" gradientUnits="userSpaceOnUse" x1="447.1321" y1="276.8625" x2="415.8709" y2="331.0085">
			<stop  offset="3.192444e-03" style="stop-color:#ffffff"/>
			<stop  offset="0.4098" style="stop-color:#ffffff"/>
			<stop  offset="0.7949" style="stop-color:#ffffff"/>
			<stop  offset="1" style="stop-color:#ffffff"/>
		</linearGradient>
		<path style="fill:#ffffff;" d="M385.2,296.33
			c-5.25,0.03-8.66,3.16-8.7,7.6c-0.04,4.44,3.35,7.66,8.62,7.67c30.96,0.06,61.92,0.02,92.88,0.01c1.68,0,3.34-0.15,4.78-1.14
			c3.1-2.12,4.43-5.07,3.3-8.65c-1.18-3.76-4.04-5.48-8-5.48c-15.48,0.03-30.96,0.01-46.44,0.01c0-0.01,0-0.03,0-0.04
			C416.16,296.3,400.68,296.25,385.2,296.33z"/>
		
			<linearGradient id="SVGID_00000077315593010840530400000011564383359734350525_" gradientUnits="userSpaceOnUse" x1="352.3808" y1="396.9404" x2="329.5303" y2="436.5187">
			<stop  offset="3.192444e-03" style="stop-color:#ffffff"/>
			<stop  offset="0.4098" style="stop-color:#ffffff"/>
			<stop  offset="0.7949" style="stop-color:#ffffff"/>
			<stop  offset="1" style="stop-color:#ffffff"/>
		</linearGradient>
		<path style="fill:#ffffff;" d="M330.38,436.95
			c7.79,3.86,15.66,3.54,22.82-1.18c6.89-4.54,11-11.04,10.38-19.76c-0.1-1.47,0.12-3.4-1.51-3.93c-1.87-0.61-2.89,1.23-3.96,2.45
			c-1.64,1.87-1.51,4.34-2.14,6.56c-2.28,8.02-10.62,12.86-18.75,10.9c-8.2-1.98-13.51-10.04-11.92-18.11
			c1.63-8.28,9.35-13.8,17.61-12.57c1.32,0.2,2.61,0.53,3.92,0.73c2.79,0.42,4.76-1.26,5.39-3.46c0.67-2.35-2.03-2.66-3.61-3.25
			c-14.98-5.55-30.5,5.39-30.46,21.43C318.17,425.79,322.49,433.04,330.38,436.95z"/>
		
			<linearGradient id="SVGID_00000006706379526150911060000006253628023965216666_" gradientUnits="userSpaceOnUse" x1="352.0284" y1="285.3387" x2="329.429" y2="324.4818">
			<stop  offset="3.192444e-03" style="stop-color:#ffffff"/>
			<stop  offset="0.4098" style="stop-color:#ffffff"/>
			<stop  offset="0.7949" style="stop-color:#ffffff"/>
			<stop  offset="1" style="stop-color:#ffffff"/>
		</linearGradient>
		<path style="fill:#ffffff;" d="M326.3,322.42
			c8.08,6.23,19.13,6.91,27.09,1.27c6.94-4.92,11.04-11.48,10.07-20.41c-0.13-1.17-0.24-2.51-1.42-3.02
			c-1.52-0.66-2.4,0.66-3.34,1.57c-2.09,2.01-2.05,4.81-2.77,7.35c-2.24,7.89-10,12.52-18.3,10.99
			c-7.52-1.39-13.31-8.78-12.71-16.24c0.68-8.53,6.95-14.43,15.49-14.44c2.15,0,4.3,0.37,6.44,0.62c2.35,0.28,4.04-0.93,4.74-2.87
			c0.9-2.53-1.57-2.92-3.13-3.6c-2.47-1.07-5.12-1.43-7.47-1.33c-10.15-0.04-18.68,5.84-21.88,14.86
			C315.94,306.14,318.96,316.75,326.3,322.42z"/>
		
			<linearGradient id="SVGID_00000019648888705941790470000002348195999251874223_" gradientUnits="userSpaceOnUse" x1="352.3465" y1="452.8636" x2="329.4739" y2="492.4801">
			<stop  offset="3.192444e-03" style="stop-color:#ffffff"/>
			<stop  offset="0.4098" style="stop-color:#ffffff"/>
			<stop  offset="0.7949" style="stop-color:#ffffff"/>
			<stop  offset="1" style="stop-color:#ffffff"/>
		</linearGradient>
		<path style="fill:#ffffff;" d="M362.2,468.28
			c-1.48-0.41-2.24,1.12-3.28,1.89c-1.99,1.49-1.79,3.81-2.34,5.85c-2.18,8.07-9.29,12.96-17.69,12.22
			c-6.99-0.62-12.85-6.41-13.43-13.27c-0.76-9.01,3.5-15.17,11.95-17.66c3.1-0.92,5.94-0.12,8.81,0.65
			c3.09,0.83,5.17-0.93,5.92-3.25c0.86-2.67-2.16-2.88-3.84-3.46c-15.02-5.2-30.13,5.56-30.13,21.38
			c0,16.64,16.73,27.61,31.97,20.97c8.53-3.72,14.73-13.68,13.57-21.92C363.54,470.42,363.79,468.72,362.2,468.28z"/>
		
			<linearGradient id="SVGID_00000146491661964930773830000016172316955065200036_" gradientUnits="userSpaceOnUse" x1="352.328" y1="340.7199" x2="329.4909" y2="380.2751">
			<stop  offset="3.192444e-03" style="stop-color:#ffffff"/>
			<stop  offset="0.4098" style="stop-color:#ffffff"/>
			<stop  offset="0.7949" style="stop-color:#ffffff"/>
			<stop  offset="1" style="stop-color:#ffffff"/>
		</linearGradient>
		<path style="fill:#ffffff;" d="M346.26,338.52
			c-14.43-3.51-28.02,7-28.08,21.55c-0.05,12.93,10.26,23.44,22.88,23.33c12.4-0.11,22.94-10.62,22.52-22.58
			c-0.06-1.67,0.64-4.21-1.83-4.52c-2.13-0.27-3.54,1.66-4.37,3.53c-0.46,1.02-0.3,2.29-0.59,3.41
			c-1.59,6.06-5.08,10.33-11.28,12.18c-6.19,1.85-11.54,0.37-16.08-4.01c-4.37-4.22-5.55-12.88-2.71-18.13
			c3.5-6.47,10.66-9.81,17.7-7.84c3.37,0.94,6.54,0.86,7.31-2.68C352.53,339.14,348.6,339.09,346.26,338.52z"/>
		
			<linearGradient id="SVGID_00000011743798166655696030000004510571461218134719_" gradientUnits="userSpaceOnUse" x1="356.688" y1="279.7249" x2="337.4152" y2="313.1064">
			<stop  offset="3.192444e-03" style="stop-color:#ffffff"/>
			<stop  offset="0.4098" style="stop-color:#ffffff"/>
			<stop  offset="0.7949" style="stop-color:#ffffff"/>
			<stop  offset="1" style="stop-color:#ffffff"/>
		</linearGradient>
		<path style="fill:#ffffff;" d="M365,284.72
			c-2.44-2.38-4.58-0.85-6.45,1.01c-4.82,4.8-9.7,9.55-14.34,14.52c-2.51,2.68-4.57,3.54-7.26,0.3c-1.6-1.93-3.77-2.94-6.06-0.89
			c-2.44,2.18-1.61,4.57,0.14,6.6c2.17,2.5,4.56,4.82,6.96,7.1c0.67,0.63,1.72,0.85,2.31,1.13c2.15-0.31,3.33-1.51,4.47-2.71
			c6.52-6.84,13.02-13.71,19.53-20.57C366.18,289.22,367.37,287.03,365,284.72z"/>
		
			<linearGradient id="SVGID_00000136401112291621188660000010196924197075121288_" gradientUnits="userSpaceOnUse" x1="356.7173" y1="391.6411" x2="337.395" y2="425.1082">
			<stop  offset="3.192444e-03" style="stop-color:#ffffff"/>
			<stop  offset="0.4098" style="stop-color:#ffffff"/>
			<stop  offset="0.7949" style="stop-color:#ffffff"/>
			<stop  offset="1" style="stop-color:#ffffff"/>
		</linearGradient>
		<path style="fill:#ffffff;" d="M345.05,411.36
			c-2.94,3.24-5.37,4.77-8.69,0.56c-1.37-1.73-3.43-2.03-5.33-0.47c-2.04,1.67-2.19,3.78-0.67,5.74c1.82,2.35,4.02,4.42,5.96,6.68
			c2.8,3.27,5.43,3.15,8.34,0.04c6.58-7.05,13.28-13.98,19.92-20.98c0.93-0.98,1.7-2.05,1.75-3.49c-0.06-1.64-0.85-2.86-2.3-3.57
			c-1.99-0.97-3.59-0.03-4.93,1.31C354.35,401.85,349.52,406.45,345.05,411.36z"/>
		
			<linearGradient id="SVGID_00000134957921595746729020000006816220200693158787_" gradientUnits="userSpaceOnUse" x1="356.6701" y1="447.6839" x2="337.4806" y2="480.921">
			<stop  offset="3.192444e-03" style="stop-color:#ffffff"/>
			<stop  offset="0.4098" style="stop-color:#ffffff"/>
			<stop  offset="0.7949" style="stop-color:#ffffff"/>
			<stop  offset="1" style="stop-color:#ffffff"/>
		</linearGradient>
		<path style="fill:#ffffff;" d="M358.59,453.59
			c-4.49,4.46-9.1,8.82-13.34,13.51c-3.03,3.36-5.41,4.76-9.18,0.75c-2.44-2.59-6.34-0.86-6.64,2.43
			c-0.26,2.84,8.07,12.06,11.38,12.11c1.36-0.15,2.57-1.31,3.73-2.51c6.57-6.85,13.12-13.72,19.67-20.59
			c1.86-1.95,3.23-4.13,0.88-6.52C362.73,450.38,360.51,451.69,358.59,453.59z"/>
		
			<linearGradient id="SVGID_00000040538908781024486190000008359633990779496609_" gradientUnits="userSpaceOnUse" x1="356.806" y1="335.4296" x2="337.3988" y2="369.0439">
			<stop  offset="3.192444e-03" style="stop-color:#ffffff"/>
			<stop  offset="0.4098" style="stop-color:#ffffff"/>
			<stop  offset="0.7949" style="stop-color:#ffffff"/>
			<stop  offset="1" style="stop-color:#ffffff"/>
		</linearGradient>
		<path style="fill:#ffffff;" d="M358.31,341.47
			c-4.44,4.49-8.95,8.92-13.13,13.65c-3.02,3.42-5.58,4.91-9.08,0.65c-1.41-1.72-3.52-1.82-5.31-0.13
			c-1.73,1.64-1.83,3.53-0.39,5.35c1.75,2.21,3.74,4.23,5.51,6.43c3.09,3.85,5.97,3.27,9.07-0.04c6.36-6.79,12.84-13.47,19.26-20.2
			c1.04-1.09,1.97-2.26,2.08-3.87c0.01-1.64-0.57-2.97-2.16-3.57C361.81,338.84,359.89,339.87,358.31,341.47z"/>
	</g>
</g>
</svg>
